<svg xmlns="http://www.w3.org/2000/svg" viewBox="0 0 240 240">
  <defs>
    <!-- Tip blade gradient: teal → lime -->
    <linearGradient id="gTip1" x1="0%" y1="100%" x2="0%" y2="0%">
      <stop offset="0%" stop-color="#20c8b0"/>
      <stop offset="100%" stop-color="#7ee820"/>
    </linearGradient>
    <linearGradient id="gTip2" x1="0%" y1="100%" x2="0%" y2="0%">
      <stop offset="0%" stop-color="#28d0a0"/>
      <stop offset="100%" stop-color="#b8f020"/>
    </linearGradient>
  </defs>

  <!-- Row 1 – far bottom-left tiny squares (deep navy) -->
  <rect x="8"  y="155" width="19" height="19" rx="5" fill="#0d47a1" transform="rotate(-38 17 164)"/>
  <rect x="30" y="168" width="19" height="19" rx="5" fill="#0e4ea8" transform="rotate(-38 39 177)"/>

  <!-- Row 2 – small squares (dark blue) -->
  <rect x="36" y="126" width="25" height="25" rx="5" fill="#1258b2" transform="rotate(-38 48 138)"/>
  <rect x="60" y="140" width="25" height="25" rx="5" fill="#1462bc" transform="rotate(-38 72 152)"/>

  <!-- Row 3 – medium rectangles (medium blue → sky blue) -->
  <rect x="70"  y="90"  width="34" height="34" rx="7" fill="#1a88d0" transform="rotate(-38 87 107)"/>
  <rect x="100" y="106" width="34" height="34" rx="7" fill="#1e98dc" transform="rotate(-38 117 123)"/>

  <!-- Row 4 – large rectangles (sky blue → cyan) -->
  <rect x="112" y="50" width="42" height="42" rx="8" fill="#22b0e8" transform="rotate(-38 133 71)"/>
  <rect x="148" y="66" width="42" height="42" rx="8" fill="#24bce8" transform="rotate(-38 169 87)"/>

  <!-- Tip blades (teal → lime green gradient) -->
  <rect x="152" y="14" width="13" height="52" rx="6" fill="url(#gTip1)" transform="rotate(-38 158 40)"/>
  <rect x="173" y="2"  width="10" height="42" rx="5" fill="url(#gTip2)" transform="rotate(-38 178 23)"/>
</svg>
